<svg width="224" height="88" viewBox="0 0 224 88" fill="none" xmlns="http://www.w3.org/2000/svg">
<path d="M223.458 76.018C223.458 76.778 223.407 77.462 223.306 78.07H207.916C208.042 79.59 208.574 80.7807 209.512 81.642C210.449 82.5033 211.602 82.934 212.97 82.934C214.946 82.934 216.352 82.0854 217.188 80.388H222.926C222.318 82.4147 221.152 84.0867 219.43 85.404C217.707 86.696 215.592 87.342 213.084 87.342C211.057 87.342 209.233 86.8987 207.612 86.012C206.016 85.1 204.762 83.8207 203.85 82.174C202.963 80.5274 202.52 78.6273 202.52 76.474C202.52 74.2953 202.963 72.3827 203.85 70.736C204.736 69.0893 205.978 67.8227 207.574 66.936C209.17 66.0493 211.006 65.606 213.084 65.606C215.085 65.606 216.871 66.0367 218.442 66.898C220.038 67.7593 221.266 68.988 222.128 70.584C223.014 72.1547 223.458 73.966 223.458 76.018ZM217.948 74.498C217.922 73.13 217.428 72.0407 216.466 71.23C215.503 70.394 214.325 69.976 212.932 69.976C211.614 69.976 210.5 70.3813 209.588 71.192C208.701 71.9773 208.156 73.0793 207.954 74.498H217.948Z" fill="white"/>
<path d="M200.004 76.018C200.004 76.778 199.954 77.462 199.852 78.07H184.462C184.589 79.59 185.121 80.7807 186.058 81.642C186.996 82.5033 188.148 82.934 189.516 82.934C191.492 82.934 192.898 82.0854 193.734 80.388H199.472C198.864 82.4147 197.699 84.0867 195.976 85.404C194.254 86.696 192.138 87.342 189.63 87.342C187.604 87.342 185.78 86.8987 184.158 86.012C182.562 85.1 181.308 83.8207 180.396 82.174C179.51 80.5274 179.066 78.6273 179.066 76.474C179.066 74.2953 179.51 72.3827 180.396 70.736C181.283 69.0893 182.524 67.8227 184.12 66.936C185.716 66.0493 187.553 65.606 189.63 65.606C191.632 65.606 193.418 66.0367 194.988 66.898C196.584 67.7593 197.813 68.988 198.674 70.584C199.561 72.1547 200.004 73.966 200.004 76.018ZM194.494 74.498C194.469 73.13 193.975 72.0407 193.012 71.23C192.05 70.394 190.872 69.976 189.478 69.976C188.161 69.976 187.046 70.3813 186.134 71.192C185.248 71.9773 184.703 73.0793 184.5 74.498H194.494Z" fill="white"/>
<path d="M176.987 70.318H173.301V87H167.905V70.318H165.511V65.948H167.905V64.884C167.905 62.3 168.64 60.4 170.109 59.184C171.578 57.968 173.795 57.398 176.759 57.474V61.958C175.467 61.9327 174.568 62.148 174.061 62.604C173.554 63.06 173.301 63.8833 173.301 65.074V65.948H176.987V70.318Z" fill="white"/>
<path d="M163.887 70.318H160.201V87H154.805V70.318H152.411V65.948H154.805V64.884C154.805 62.3 155.54 60.4 157.009 59.184C158.479 57.968 160.695 57.398 163.659 57.474V61.958C162.367 61.9327 161.468 62.148 160.961 62.604C160.455 63.06 160.201 63.8833 160.201 65.074V65.948H163.887V70.318Z" fill="white"/>
<path d="M139.351 87.342C137.324 87.342 135.5 86.8987 133.879 86.012C132.258 85.1 130.978 83.8207 130.041 82.174C129.129 80.5274 128.673 78.6273 128.673 76.474C128.673 74.3207 129.142 72.4207 130.079 70.774C131.042 69.1274 132.346 67.8607 133.993 66.974C135.64 66.062 137.476 65.606 139.503 65.606C141.53 65.606 143.366 66.062 145.013 66.974C146.66 67.8607 147.952 69.1274 148.889 70.774C149.852 72.4207 150.333 74.3207 150.333 76.474C150.333 78.6273 149.839 80.5274 148.851 82.174C147.888 83.8207 146.571 85.1 144.899 86.012C143.252 86.8987 141.403 87.342 139.351 87.342ZM139.351 82.706C140.314 82.706 141.213 82.478 142.049 82.022C142.91 81.5407 143.594 80.8313 144.101 79.894C144.608 78.9567 144.861 77.8167 144.861 76.474C144.861 74.4727 144.329 72.94 143.265 71.876C142.226 70.7867 140.947 70.242 139.427 70.242C137.907 70.242 136.628 70.7867 135.589 71.876C134.576 72.94 134.069 74.4727 134.069 76.474C134.069 78.4753 134.563 80.0207 135.551 81.11C136.564 82.174 137.831 82.706 139.351 82.706Z" fill="white"/>
<path d="M99.5428 73.7C99.5428 71.0907 100.126 68.76 101.291 66.708C102.482 64.6307 104.09 63.022 106.117 61.882C108.169 60.7167 110.462 60.134 112.995 60.134C115.959 60.134 118.556 60.894 120.785 62.414C123.014 63.934 124.572 66.0367 125.459 68.722H119.341C118.733 67.4554 117.872 66.5054 116.757 65.872C115.668 65.2387 114.401 64.922 112.957 64.922C111.412 64.922 110.031 65.2894 108.815 66.024C107.624 66.7334 106.687 67.7467 106.003 69.064C105.344 70.3814 105.015 71.9267 105.015 73.7C105.015 75.448 105.344 76.9934 106.003 78.336C106.687 79.6534 107.624 80.6794 108.815 81.414C110.031 82.1234 111.412 82.478 112.957 82.478C114.401 82.478 115.668 82.1614 116.757 81.528C117.872 80.8694 118.733 79.9067 119.341 78.64H125.459C124.572 81.3507 123.014 83.466 120.785 84.986C118.581 86.4807 115.984 87.228 112.995 87.228C110.462 87.228 108.169 86.658 106.117 85.518C104.09 84.3527 102.482 82.744 101.291 80.692C100.126 78.64 99.5428 76.3094 99.5428 73.7Z" fill="white"/>
<path d="M81.7369 69.216C82.4209 68.1013 83.3075 67.2273 84.3969 66.594C85.5115 65.9607 86.7782 65.644 88.1969 65.644V71.23H86.7909C85.1189 71.23 83.8522 71.6226 82.9909 72.408C82.1549 73.1933 81.7369 74.5613 81.7369 76.512V87H76.4169V65.948H81.7369V69.216Z" fill="white"/>
<path d="M71.1679 65.948V87H65.8099V84.34C65.1259 85.252 64.2266 85.974 63.1119 86.506C62.0226 87.0127 60.8319 87.266 59.5399 87.266C57.8932 87.266 56.4366 86.924 55.1699 86.24C53.9032 85.5307 52.9026 84.5047 52.1679 83.162C51.4586 81.794 51.1039 80.1727 51.1039 78.298V65.948H56.4239V77.538C56.4239 79.21 56.8419 80.502 57.6779 81.414C58.5139 82.3007 59.6539 82.744 61.0979 82.744C62.5672 82.744 63.7199 82.3007 64.5559 81.414C65.3919 80.502 65.8099 79.21 65.8099 77.538V65.948H71.1679Z" fill="white"/>
<path d="M36.4094 87.342C34.3828 87.342 32.5588 86.8987 30.9374 86.012C29.3161 85.1 28.0368 83.8207 27.0994 82.174C26.1874 80.5274 25.7314 78.6273 25.7314 76.474C25.7314 74.3207 26.2001 72.4207 27.1374 70.774C28.1001 69.1274 29.4048 67.8607 31.0514 66.974C32.6981 66.062 34.5348 65.606 36.5614 65.606C38.5881 65.606 40.4248 66.062 42.0714 66.974C43.7181 67.8607 45.0101 69.1274 45.9474 70.774C46.9101 72.4207 47.3914 74.3207 47.3914 76.474C47.3914 78.6273 46.8974 80.5274 45.9094 82.174C44.9468 83.8207 43.6294 85.1 41.9574 86.012C40.3108 86.8987 38.4614 87.342 36.4094 87.342ZM36.4094 82.706C37.3721 82.706 38.2714 82.478 39.1074 82.022C39.9688 81.5407 40.6528 80.8313 41.1594 79.894C41.6661 78.9567 41.9194 77.8167 41.9194 76.474C41.9194 74.4727 41.3874 72.94 40.3234 71.876C39.2848 70.7867 38.0054 70.242 36.4854 70.242C34.9654 70.242 33.6861 70.7867 32.6474 71.876C31.6341 72.94 31.1274 74.4727 31.1274 76.474C31.1274 78.4753 31.6214 80.0207 32.6094 81.11C33.6228 82.174 34.8894 82.706 36.4094 82.706Z" fill="white"/>
<path d="M23.9932 60.476L15.0252 77.766V87H9.70522V77.766L0.699219 60.476H6.70322L12.4032 72.598L18.0652 60.476H23.9932Z" fill="white"/>
<path d="M163.836 8.948L150.802 39.956H145.14L149.7 29.468L141.264 8.948H147.23L152.664 23.654L158.174 8.948H163.836Z" fill="white"/>
<path d="M128.812 30.342C126.785 30.342 124.961 29.8987 123.34 29.012C121.718 28.1 120.439 26.8207 119.502 25.174C118.59 23.5274 118.134 21.6274 118.134 19.474C118.134 17.3207 118.602 15.4207 119.54 13.774C120.502 12.1274 121.807 10.8607 123.454 9.97402C125.1 9.06202 126.937 8.60602 128.964 8.60602C130.99 8.60602 132.827 9.06202 134.474 9.97402C136.12 10.8607 137.412 12.1274 138.35 13.774C139.312 15.4207 139.794 17.3207 139.794 19.474C139.794 21.6274 139.3 23.5274 138.312 25.174C137.349 26.8207 136.032 28.1 134.36 29.012C132.713 29.8987 130.864 30.342 128.812 30.342ZM128.812 25.706C129.774 25.706 130.674 25.478 131.51 25.022C132.371 24.5407 133.055 23.8314 133.562 22.894C134.068 21.9567 134.322 20.8167 134.322 19.474C134.322 17.4727 133.79 15.94 132.726 14.876C131.687 13.7867 130.408 13.242 128.888 13.242C127.368 13.242 126.088 13.7867 125.05 14.876C124.036 15.94 123.53 17.4727 123.53 19.474C123.53 21.4754 124.024 23.0207 125.012 24.11C126.025 25.174 127.292 25.706 128.812 25.706Z" fill="white"/>
<path d="M111.586 6.44001C110.623 6.44001 109.825 6.14868 109.192 5.56601C108.584 4.95801 108.28 4.21067 108.28 3.32401C108.28 2.43734 108.584 1.70267 109.192 1.12001C109.825 0.512008 110.623 0.208008 111.586 0.208008C112.523 0.208008 113.296 0.512008 113.904 1.12001C114.512 1.70267 114.816 2.43734 114.816 3.32401C114.816 4.21067 114.512 4.95801 113.904 5.56601C113.296 6.14868 112.523 6.44001 111.586 6.44001ZM114.208 33.458C114.208 35.7887 113.625 37.4607 112.46 38.474C111.32 39.5127 109.673 40.032 107.52 40.032H105.164V35.51H106.684C107.494 35.51 108.064 35.3453 108.394 35.016C108.723 34.712 108.888 34.2053 108.888 33.496V8.94801H114.208V33.458Z" fill="white"/>
<path d="M95.4305 8.64398C97.9385 8.64398 99.9652 9.44198 101.511 11.038C103.056 12.6086 103.829 14.8126 103.829 17.65V30H98.5085V18.372C98.5085 16.7 98.0905 15.4207 97.2545 14.534C96.4185 13.622 95.2785 13.166 93.8345 13.166C92.3652 13.166 91.1999 13.622 90.3385 14.534C89.5025 15.4207 89.0845 16.7 89.0845 18.372V30H83.7645V8.94798H89.0845V11.57C89.7939 10.658 90.6932 9.94865 91.7825 9.44198C92.8972 8.90998 94.1132 8.64398 95.4305 8.64398Z" fill="white"/>
<path d="M68.8599 7.76999V14.42H77.7899V18.638H68.8599V25.668H78.9299V30H63.5399V3.43799H78.9299V7.76999H68.8599Z" fill="white"/>
</svg>
