<svg width="412" height="59" viewBox="0 0 412 59" fill="none" xmlns="http://www.w3.org/2000/svg">
<rect width="408" height="52" transform="translate(4 7)" fill="white"/>
<path d="M286.356 42.048C286.175 42.048 286.026 41.9893 285.908 41.872C285.791 41.7547 285.732 41.6053 285.732 41.424C285.732 41.2427 285.791 41.0933 285.908 40.976C286.026 40.8587 286.175 40.8 286.356 40.8C286.527 40.8 286.671 40.8587 286.788 40.976C286.906 41.0933 286.964 41.2427 286.964 41.424C286.964 41.6053 286.906 41.7547 286.788 41.872C286.671 41.9893 286.527 42.048 286.356 42.048Z" fill="black"/>
<path d="M283.966 42.048C283.784 42.048 283.635 41.9893 283.518 41.872C283.4 41.7547 283.342 41.6053 283.342 41.424C283.342 41.2427 283.4 41.0933 283.518 40.976C283.635 40.8587 283.784 40.8 283.966 40.8C284.136 40.8 284.28 40.8587 284.398 40.976C284.515 41.0933 284.574 41.2427 284.574 41.424C284.574 41.6053 284.515 41.7547 284.398 41.872C284.28 41.9893 284.136 42.048 283.966 42.048Z" fill="black"/>
<path d="M281.575 42.048C281.394 42.048 281.244 41.9893 281.127 41.872C281.01 41.7547 280.951 41.6053 280.951 41.424C280.951 41.2427 281.01 41.0933 281.127 40.976C281.244 40.8587 281.394 40.8 281.575 40.8C281.746 40.8 281.89 40.8587 282.007 40.976C282.124 41.0933 282.183 41.2427 282.183 41.424C282.183 41.6053 282.124 41.7547 282.007 41.872C281.89 41.9893 281.746 42.048 281.575 42.048Z" fill="black"/>
<path d="M279.511 37.072C279.511 37.456 279.5 37.744 279.479 37.936H271.975C271.996 38.7147 272.167 39.3707 272.487 39.904C272.807 40.4373 273.228 40.8373 273.751 41.104C274.274 41.3707 274.844 41.504 275.463 41.504C276.316 41.504 277.031 41.296 277.607 40.88C278.183 40.4533 278.546 39.8773 278.695 39.152H279.447C279.276 40.0373 278.839 40.7573 278.135 41.312C277.431 41.856 276.54 42.128 275.463 42.128C274.652 42.128 273.927 41.9467 273.287 41.584C272.647 41.2213 272.146 40.704 271.783 40.032C271.42 39.3493 271.239 38.5547 271.239 37.648C271.239 36.7413 271.415 35.952 271.767 35.28C272.13 34.608 272.631 34.096 273.271 33.744C273.911 33.3813 274.642 33.2 275.463 33.2C276.295 33.2 277.015 33.3813 277.623 33.744C278.242 34.096 278.711 34.5707 279.031 35.168C279.351 35.7547 279.511 36.3893 279.511 37.072ZM278.791 37.344C278.823 36.576 278.684 35.9253 278.375 35.392C278.076 34.8587 277.666 34.464 277.143 34.208C276.62 33.9413 276.055 33.808 275.447 33.808C274.839 33.808 274.274 33.9413 273.751 34.208C273.239 34.464 272.818 34.8587 272.487 35.392C272.167 35.9253 271.996 36.576 271.975 37.344H278.791Z" fill="black"/>
<path d="M269.843 33.952H267.587V42H266.867V33.952H265.555V33.312H266.867V32.704C266.867 31.7973 267.096 31.1253 267.555 30.688C268.013 30.24 268.765 30.016 269.811 30.016V30.656C268.979 30.656 268.397 30.816 268.067 31.136C267.747 31.456 267.587 31.9787 267.587 32.704V33.312H269.843V33.952Z" fill="black"/>
<path d="M255.317 37.648C255.317 36.752 255.493 35.968 255.845 35.296C256.208 34.624 256.704 34.1067 257.333 33.744C257.973 33.3813 258.698 33.2 259.509 33.2C260.426 33.2 261.205 33.424 261.845 33.872C262.485 34.32 262.933 34.8907 263.189 35.584V33.312H263.909V42H263.189V39.712C262.933 40.416 262.48 40.9973 261.829 41.456C261.189 41.904 260.416 42.128 259.509 42.128C258.698 42.128 257.973 41.9467 257.333 41.584C256.704 41.2107 256.208 40.688 255.845 40.016C255.493 39.3333 255.317 38.544 255.317 37.648ZM263.189 37.648C263.189 36.8907 263.029 36.224 262.709 35.648C262.4 35.0613 261.973 34.6133 261.429 34.304C260.885 33.984 260.277 33.824 259.605 33.824C258.901 33.824 258.282 33.9787 257.749 34.288C257.216 34.5867 256.8 35.024 256.501 35.6C256.202 36.176 256.053 36.8587 256.053 37.648C256.053 38.4373 256.202 39.12 256.501 39.696C256.8 40.272 257.216 40.7147 257.749 41.024C258.293 41.3333 258.912 41.488 259.605 41.488C260.277 41.488 260.885 41.3333 261.429 41.024C261.984 40.704 262.416 40.256 262.725 39.68C263.034 39.0933 263.189 38.416 263.189 37.648Z" fill="black"/>
<path d="M245.38 37.648C245.38 36.7413 245.556 35.952 245.908 35.28C246.27 34.608 246.766 34.096 247.396 33.744C248.036 33.3813 248.766 33.2 249.588 33.2C250.676 33.2 251.566 33.472 252.26 34.016C252.964 34.56 253.401 35.2907 253.572 36.208H252.82C252.681 35.4613 252.318 34.8747 251.732 34.448C251.156 34.0213 250.441 33.808 249.588 33.808C248.948 33.808 248.366 33.952 247.844 34.24C247.321 34.5173 246.9 34.9493 246.58 35.536C246.27 36.112 246.116 36.816 246.116 37.648C246.116 38.4907 246.27 39.2 246.58 39.776C246.9 40.352 247.321 40.784 247.844 41.072C248.366 41.36 248.948 41.504 249.588 41.504C250.441 41.504 251.156 41.2907 251.732 40.864C252.318 40.4373 252.681 39.8507 252.82 39.104H253.572C253.401 40.0107 252.964 40.7413 252.26 41.296C251.556 41.8507 250.665 42.128 249.588 42.128C248.766 42.128 248.036 41.9467 247.396 41.584C246.766 41.2213 246.27 40.704 245.908 40.032C245.556 39.3493 245.38 38.5547 245.38 37.648Z" fill="black"/>
<path d="M234.614 37.648C234.614 36.752 234.79 35.968 235.142 35.296C235.505 34.624 236.001 34.1067 236.63 33.744C237.27 33.3813 237.995 33.2 238.806 33.2C239.723 33.2 240.502 33.424 241.142 33.872C241.782 34.32 242.23 34.8907 242.486 35.584V33.312H243.206V42H242.486V39.712C242.23 40.416 241.777 40.9973 241.126 41.456C240.486 41.904 239.713 42.128 238.806 42.128C237.995 42.128 237.27 41.9467 236.63 41.584C236.001 41.2107 235.505 40.688 235.142 40.016C234.79 39.3333 234.614 38.544 234.614 37.648ZM242.486 37.648C242.486 36.8907 242.326 36.224 242.006 35.648C241.697 35.0613 241.27 34.6133 240.726 34.304C240.182 33.984 239.574 33.824 238.902 33.824C238.198 33.824 237.579 33.9787 237.046 34.288C236.513 34.5867 236.097 35.024 235.798 35.6C235.499 36.176 235.35 36.8587 235.35 37.648C235.35 38.4373 235.499 39.12 235.798 39.696C236.097 40.272 236.513 40.7147 237.046 41.024C237.59 41.3333 238.209 41.488 238.902 41.488C239.574 41.488 240.182 41.3333 240.726 41.024C241.281 40.704 241.713 40.256 242.022 39.68C242.331 39.0933 242.486 38.416 242.486 37.648Z" fill="black"/>
<path d="M232.421 30.768V42H231.701V36.56H225.141V42H224.421V30.768H225.141V35.952H231.701V30.768H232.421Z" fill="black"/>
<path d="M221.797 33.312V42H221.077V40.112C220.831 40.7733 220.421 41.28 219.845 41.632C219.279 41.9733 218.629 42.144 217.893 42.144C216.858 42.144 216.01 41.8293 215.349 41.2C214.698 40.56 214.373 39.616 214.373 38.368V33.312H215.077V38.32C215.077 39.3547 215.338 40.1493 215.861 40.704C216.383 41.248 217.093 41.52 217.989 41.52C218.927 41.52 219.674 41.2213 220.229 40.624C220.794 40.0267 221.077 39.1413 221.077 37.968V33.312H221.797Z" fill="black"/>
<path d="M208.42 33.136C209.444 33.136 210.281 33.456 210.932 34.096C211.583 34.7253 211.908 35.664 211.908 36.912V42H211.204V36.96C211.204 35.9253 210.943 35.136 210.42 34.592C209.897 34.0373 209.188 33.76 208.292 33.76C207.353 33.76 206.601 34.0587 206.036 34.656C205.481 35.2533 205.204 36.1387 205.204 37.312V42H204.484V30.16H205.204V35.152C205.449 34.5013 205.86 34.0053 206.436 33.664C207.012 33.312 207.673 33.136 208.42 33.136Z" fill="black"/>
<path d="M202.77 30.768V31.376H199.57V42H198.85V31.376H195.65V30.768H202.77Z" fill="black"/>
<path d="M194.059 42.048C193.878 42.048 193.729 41.9893 193.611 41.872C193.494 41.7547 193.435 41.6053 193.435 41.424C193.435 41.2427 193.494 41.0933 193.611 40.976C193.729 40.8587 193.878 40.8 194.059 40.8C194.23 40.8 194.374 40.8587 194.491 40.976C194.609 41.0933 194.667 41.2427 194.667 41.424C194.667 41.6053 194.609 41.7547 194.491 41.872C194.374 41.9893 194.23 42.048 194.059 42.048Z" fill="black"/>
<path d="M192.594 33.312L189.858 42H189.17L186.402 34.304L183.618 42H182.93L180.194 33.312H180.946L183.282 41.184L186.066 33.312H186.754L189.522 41.152L191.858 33.312H192.594Z" fill="black"/>
<path d="M179.656 33.312L176.92 42H176.232L173.464 34.304L170.68 42H169.992L167.256 33.312H168.008L170.344 41.184L173.128 33.312H173.816L176.584 41.152L178.92 33.312H179.656Z" fill="black"/>
<path d="M166.719 33.312L163.983 42H163.295L160.527 34.304L157.743 42H157.055L154.319 33.312H155.071L157.407 41.184L160.191 33.312H160.879L163.647 41.152L165.983 33.312H166.719Z" fill="black"/>
<path d="M153.401 27.008L148.969 44.576H148.249L152.665 27.008H153.401Z" fill="black"/>
<path d="M146.994 27.008L142.562 44.576H141.842L146.258 27.008H146.994Z" fill="black"/>
<path d="M137.489 42.128C136.519 42.128 135.724 41.9147 135.105 41.488C134.497 41.0613 134.156 40.4533 134.081 39.664H134.817C134.871 40.2293 135.127 40.6773 135.585 41.008C136.055 41.3387 136.689 41.504 137.489 41.504C138.151 41.504 138.673 41.3387 139.057 41.008C139.452 40.6667 139.649 40.2507 139.649 39.76C139.649 39.4187 139.543 39.1413 139.329 38.928C139.127 38.704 138.871 38.5333 138.561 38.416C138.252 38.2987 137.831 38.1707 137.297 38.032C136.657 37.8613 136.14 37.696 135.745 37.536C135.351 37.3653 135.015 37.1147 134.737 36.784C134.46 36.4533 134.321 36.0107 134.321 35.456C134.321 35.0507 134.444 34.6773 134.689 34.336C134.935 33.984 135.276 33.7067 135.713 33.504C136.151 33.3013 136.647 33.2 137.201 33.2C138.108 33.2 138.839 33.4293 139.393 33.888C139.959 34.336 140.263 34.96 140.305 35.76H139.585C139.553 35.184 139.329 34.7147 138.913 34.352C138.497 33.9893 137.921 33.808 137.185 33.808C136.567 33.808 136.055 33.968 135.649 34.288C135.244 34.608 135.041 34.9973 135.041 35.456C135.041 35.8613 135.153 36.192 135.377 36.448C135.612 36.6933 135.895 36.8853 136.225 37.024C136.567 37.152 137.015 37.2907 137.569 37.44C138.177 37.6 138.663 37.76 139.025 37.92C139.399 38.0693 139.713 38.2933 139.969 38.592C140.225 38.88 140.353 39.2693 140.353 39.76C140.353 40.208 140.231 40.6133 139.985 40.976C139.74 41.3387 139.399 41.6213 138.961 41.824C138.524 42.0267 138.033 42.128 137.489 42.128Z" fill="black"/>
<path d="M124.548 35.6C124.793 34.896 125.236 34.32 125.876 33.872C126.526 33.424 127.31 33.2 128.228 33.2C129.038 33.2 129.758 33.3813 130.388 33.744C131.028 34.1067 131.524 34.624 131.876 35.296C132.238 35.968 132.42 36.752 132.42 37.648C132.42 38.544 132.238 39.3333 131.876 40.016C131.524 40.688 131.028 41.2107 130.388 41.584C129.758 41.9467 129.038 42.128 128.228 42.128C127.321 42.128 126.542 41.904 125.892 41.456C125.252 40.9973 124.804 40.4213 124.548 39.728V46.096H123.828V33.312H124.548V35.6ZM131.684 37.648C131.684 36.8587 131.534 36.176 131.236 35.6C130.937 35.024 130.516 34.5867 129.972 34.288C129.438 33.9787 128.82 33.824 128.116 33.824C127.444 33.824 126.836 33.984 126.292 34.304C125.748 34.6133 125.321 35.0613 125.012 35.648C124.702 36.224 124.548 36.8907 124.548 37.648C124.548 38.416 124.702 39.0933 125.012 39.68C125.321 40.256 125.748 40.704 126.292 41.024C126.836 41.3333 127.444 41.488 128.116 41.488C128.82 41.488 129.438 41.3333 129.972 41.024C130.516 40.7147 130.937 40.272 131.236 39.696C131.534 39.12 131.684 38.4373 131.684 37.648Z" fill="black"/>
<path d="M119.353 33.936V39.68C119.353 40.32 119.47 40.7627 119.705 41.008C119.939 41.2427 120.355 41.36 120.953 41.36H121.929V42H120.841C120.083 42 119.523 41.824 119.161 41.472C118.809 41.1093 118.633 40.512 118.633 39.68V33.936H117.321V33.312H118.633V31.104H119.353V33.312H121.929V33.936H119.353Z" fill="black"/>
<path d="M113.806 33.936V39.68C113.806 40.32 113.923 40.7627 114.158 41.008C114.393 41.2427 114.809 41.36 115.406 41.36H116.382V42H115.294C114.537 42 113.977 41.824 113.614 41.472C113.262 41.1093 113.086 40.512 113.086 39.68V33.936H111.774V33.312H113.086V31.104H113.806V33.312H116.382V33.936H113.806Z" fill="black"/>
<path d="M106.701 33.136C107.725 33.136 108.562 33.456 109.213 34.096C109.864 34.7253 110.189 35.664 110.189 36.912V42H109.485V36.96C109.485 35.9253 109.224 35.136 108.701 34.592C108.178 34.0373 107.469 33.76 106.573 33.76C105.634 33.76 104.882 34.0587 104.317 34.656C103.762 35.2533 103.485 36.1387 103.485 37.312V42H102.765V30.16H103.485V35.152C103.73 34.5013 104.141 34.0053 104.717 33.664C105.293 33.312 105.954 33.136 106.701 33.136Z" fill="black"/>
<path fill-rule="evenodd" clip-rule="evenodd" d="M35.3356 27.2526C35.7484 26.8857 36.3805 26.9229 36.7474 27.3356L52.7474 45.3356C53.1143 45.7484 53.0772 46.3805 52.6644 46.7474C52.2516 47.1143 51.6195 47.0772 51.2526 46.6644L35.2526 28.6644C34.8857 28.2516 34.9229 27.6195 35.3356 27.2526Z" fill="black"/>
<path fill-rule="evenodd" clip-rule="evenodd" d="M52.6644 27.2526C53.0772 27.6195 53.1143 28.2516 52.7474 28.6644L36.7474 46.6644C36.3805 47.0772 35.7484 47.1143 35.3356 46.7474C34.9229 46.3805 34.8857 45.7484 35.2526 45.3356L51.2526 27.3356C51.6195 26.9229 52.2516 26.8857 52.6644 27.2526Z" fill="black"/>
<path fill-rule="evenodd" clip-rule="evenodd" d="M69.3916 27.2064C69.8299 26.8704 70.4576 26.9533 70.7936 27.3916L81.5 41.3564L92.2064 27.3916C92.5424 26.9533 93.1701 26.8704 93.6084 27.2064C94.0467 27.5424 94.1296 28.1701 93.7936 28.6084L82.2936 43.6084C82.1044 43.8553 81.811 44 81.5 44C81.189 44 80.8956 43.8553 80.7064 43.6084L69.2064 28.6084C68.8704 28.1701 68.9533 27.5424 69.3916 27.2064Z" fill="black"/>
<path d="M329.406 29.3889C331.391 29.3889 333 27.9587 333 26.1944C333 24.4302 331.391 23 329.406 23C327.421 23 325.812 24.4302 325.812 26.1944C325.812 27.9587 327.421 29.3889 329.406 29.3889Z" fill="white"/>
<path fill-rule="evenodd" clip-rule="evenodd" d="M324.812 26.1944C324.812 23.7704 326.983 22 329.406 22C331.829 22 334 23.7704 334 26.1944C334 28.6184 331.829 30.3889 329.406 30.3889C326.983 30.3889 324.812 28.6184 324.812 26.1944ZM329.406 24C327.86 24 326.812 25.09 326.812 26.1944C326.812 27.2989 327.86 28.3889 329.406 28.3889C330.953 28.3889 332 27.2989 332 26.1944C332 25.09 330.953 24 329.406 24Z" fill="black"/>
<path d="M313.594 37.6944C315.579 37.6944 317.188 36.2642 317.188 34.5C317.188 32.7358 315.579 31.3055 313.594 31.3055C311.609 31.3055 310 32.7358 310 34.5C310 36.2642 311.609 37.6944 313.594 37.6944Z" fill="white"/>
<path fill-rule="evenodd" clip-rule="evenodd" d="M309 34.5C309 32.076 311.171 30.3055 313.594 30.3055C316.017 30.3055 318.188 32.076 318.188 34.5C318.188 36.924 316.017 38.6944 313.594 38.6944C311.171 38.6944 309 36.924 309 34.5ZM313.594 32.3055C312.047 32.3055 311 33.3955 311 34.5C311 35.6045 312.047 36.6944 313.594 36.6944C315.14 36.6944 316.188 35.6045 316.188 34.5C316.188 33.3955 315.14 32.3055 313.594 32.3055Z" fill="black"/>
<path fill-rule="evenodd" clip-rule="evenodd" d="M326.693 27.3651C326.955 27.8514 326.773 28.4578 326.287 28.7197L317.187 33.6206C316.7 33.8824 316.094 33.7005 315.832 33.2143C315.57 32.728 315.752 32.1216 316.238 31.8597L325.339 26.9588C325.825 26.697 326.431 26.8789 326.693 27.3651Z" fill="black"/>
<path fill-rule="evenodd" clip-rule="evenodd" d="M315.827 35.673C316.084 35.1841 316.688 34.9959 317.177 35.2527L326.765 40.2891C327.254 40.5459 327.443 41.1505 327.186 41.6394C326.929 42.1284 326.324 42.3165 325.835 42.0597L316.247 37.0234C315.758 36.7665 315.57 36.162 315.827 35.673Z" fill="black"/>
<path d="M329.406 39.6111C331.391 39.6111 333 41.0413 333 42.8055C333 44.5698 331.391 46 329.406 46C327.421 46 325.812 44.5698 325.812 42.8055C325.812 41.0413 327.421 39.6111 329.406 39.6111Z" fill="white"/>
<path fill-rule="evenodd" clip-rule="evenodd" d="M329.406 40.6111C327.86 40.6111 326.812 41.7011 326.812 42.8055C326.812 43.91 327.86 45 329.406 45C330.953 45 332 43.91 332 42.8055C332 41.7011 330.953 40.6111 329.406 40.6111ZM324.812 42.8055C324.812 40.3815 326.983 38.6111 329.406 38.6111C331.829 38.6111 334 40.3815 334 42.8055C334 45.2295 331.829 47 329.406 47C326.983 47 324.812 45.2295 324.812 42.8055Z" fill="black"/>
<rect width="408" height="52" transform="translate(4 7)" fill="white"/>
<path d="M286.356 42.048C286.175 42.048 286.026 41.9893 285.908 41.872C285.791 41.7547 285.732 41.6053 285.732 41.424C285.732 41.2427 285.791 41.0933 285.908 40.976C286.026 40.8587 286.175 40.8 286.356 40.8C286.527 40.8 286.671 40.8587 286.788 40.976C286.906 41.0933 286.964 41.2427 286.964 41.424C286.964 41.6053 286.906 41.7547 286.788 41.872C286.671 41.9893 286.527 42.048 286.356 42.048Z" fill="black"/>
<path d="M283.966 42.048C283.784 42.048 283.635 41.9893 283.518 41.872C283.4 41.7547 283.342 41.6053 283.342 41.424C283.342 41.2427 283.4 41.0933 283.518 40.976C283.635 40.8587 283.784 40.8 283.966 40.8C284.136 40.8 284.28 40.8587 284.398 40.976C284.515 41.0933 284.574 41.2427 284.574 41.424C284.574 41.6053 284.515 41.7547 284.398 41.872C284.28 41.9893 284.136 42.048 283.966 42.048Z" fill="black"/>
<path d="M281.575 42.048C281.394 42.048 281.244 41.9893 281.127 41.872C281.01 41.7547 280.951 41.6053 280.951 41.424C280.951 41.2427 281.01 41.0933 281.127 40.976C281.244 40.8587 281.394 40.8 281.575 40.8C281.746 40.8 281.89 40.8587 282.007 40.976C282.124 41.0933 282.183 41.2427 282.183 41.424C282.183 41.6053 282.124 41.7547 282.007 41.872C281.89 41.9893 281.746 42.048 281.575 42.048Z" fill="black"/>
<path d="M279.511 37.072C279.511 37.456 279.5 37.744 279.479 37.936H271.975C271.996 38.7147 272.167 39.3707 272.487 39.904C272.807 40.4373 273.228 40.8373 273.751 41.104C274.274 41.3707 274.844 41.504 275.463 41.504C276.316 41.504 277.031 41.296 277.607 40.88C278.183 40.4533 278.546 39.8773 278.695 39.152H279.447C279.276 40.0373 278.839 40.7573 278.135 41.312C277.431 41.856 276.54 42.128 275.463 42.128C274.652 42.128 273.927 41.9467 273.287 41.584C272.647 41.2213 272.146 40.704 271.783 40.032C271.42 39.3493 271.239 38.5547 271.239 37.648C271.239 36.7413 271.415 35.952 271.767 35.28C272.13 34.608 272.631 34.096 273.271 33.744C273.911 33.3813 274.642 33.2 275.463 33.2C276.295 33.2 277.015 33.3813 277.623 33.744C278.242 34.096 278.711 34.5707 279.031 35.168C279.351 35.7547 279.511 36.3893 279.511 37.072ZM278.791 37.344C278.823 36.576 278.684 35.9253 278.375 35.392C278.076 34.8587 277.666 34.464 277.143 34.208C276.62 33.9413 276.055 33.808 275.447 33.808C274.839 33.808 274.274 33.9413 273.751 34.208C273.239 34.464 272.818 34.8587 272.487 35.392C272.167 35.9253 271.996 36.576 271.975 37.344H278.791Z" fill="black"/>
<path d="M269.843 33.952H267.587V42H266.867V33.952H265.555V33.312H266.867V32.704C266.867 31.7973 267.096 31.1253 267.555 30.688C268.013 30.24 268.765 30.016 269.811 30.016V30.656C268.979 30.656 268.397 30.816 268.067 31.136C267.747 31.456 267.587 31.9787 267.587 32.704V33.312H269.843V33.952Z" fill="black"/>
<path d="M255.317 37.648C255.317 36.752 255.493 35.968 255.845 35.296C256.208 34.624 256.704 34.1067 257.333 33.744C257.973 33.3813 258.698 33.2 259.509 33.2C260.426 33.2 261.205 33.424 261.845 33.872C262.485 34.32 262.933 34.8907 263.189 35.584V33.312H263.909V42H263.189V39.712C262.933 40.416 262.48 40.9973 261.829 41.456C261.189 41.904 260.416 42.128 259.509 42.128C258.698 42.128 257.973 41.9467 257.333 41.584C256.704 41.2107 256.208 40.688 255.845 40.016C255.493 39.3333 255.317 38.544 255.317 37.648ZM263.189 37.648C263.189 36.8907 263.029 36.224 262.709 35.648C262.4 35.0613 261.973 34.6133 261.429 34.304C260.885 33.984 260.277 33.824 259.605 33.824C258.901 33.824 258.282 33.9787 257.749 34.288C257.216 34.5867 256.8 35.024 256.501 35.6C256.202 36.176 256.053 36.8587 256.053 37.648C256.053 38.4373 256.202 39.12 256.501 39.696C256.8 40.272 257.216 40.7147 257.749 41.024C258.293 41.3333 258.912 41.488 259.605 41.488C260.277 41.488 260.885 41.3333 261.429 41.024C261.984 40.704 262.416 40.256 262.725 39.68C263.034 39.0933 263.189 38.416 263.189 37.648Z" fill="black"/>
<path d="M245.38 37.648C245.38 36.7413 245.556 35.952 245.908 35.28C246.27 34.608 246.766 34.096 247.396 33.744C248.036 33.3813 248.766 33.2 249.588 33.2C250.676 33.2 251.566 33.472 252.26 34.016C252.964 34.56 253.401 35.2907 253.572 36.208H252.82C252.681 35.4613 252.318 34.8747 251.732 34.448C251.156 34.0213 250.441 33.808 249.588 33.808C248.948 33.808 248.366 33.952 247.844 34.24C247.321 34.5173 246.9 34.9493 246.58 35.536C246.27 36.112 246.116 36.816 246.116 37.648C246.116 38.4907 246.27 39.2 246.58 39.776C246.9 40.352 247.321 40.784 247.844 41.072C248.366 41.36 248.948 41.504 249.588 41.504C250.441 41.504 251.156 41.2907 251.732 40.864C252.318 40.4373 252.681 39.8507 252.82 39.104H253.572C253.401 40.0107 252.964 40.7413 252.26 41.296C251.556 41.8507 250.665 42.128 249.588 42.128C248.766 42.128 248.036 41.9467 247.396 41.584C246.766 41.2213 246.27 40.704 245.908 40.032C245.556 39.3493 245.38 38.5547 245.38 37.648Z" fill="black"/>
<path d="M234.614 37.648C234.614 36.752 234.79 35.968 235.142 35.296C235.505 34.624 236.001 34.1067 236.63 33.744C237.27 33.3813 237.995 33.2 238.806 33.2C239.723 33.2 240.502 33.424 241.142 33.872C241.782 34.32 242.23 34.8907 242.486 35.584V33.312H243.206V42H242.486V39.712C242.23 40.416 241.777 40.9973 241.126 41.456C240.486 41.904 239.713 42.128 238.806 42.128C237.995 42.128 237.27 41.9467 236.63 41.584C236.001 41.2107 235.505 40.688 235.142 40.016C234.79 39.3333 234.614 38.544 234.614 37.648ZM242.486 37.648C242.486 36.8907 242.326 36.224 242.006 35.648C241.697 35.0613 241.27 34.6133 240.726 34.304C240.182 33.984 239.574 33.824 238.902 33.824C238.198 33.824 237.579 33.9787 237.046 34.288C236.513 34.5867 236.097 35.024 235.798 35.6C235.499 36.176 235.35 36.8587 235.35 37.648C235.35 38.4373 235.499 39.12 235.798 39.696C236.097 40.272 236.513 40.7147 237.046 41.024C237.59 41.3333 238.209 41.488 238.902 41.488C239.574 41.488 240.182 41.3333 240.726 41.024C241.281 40.704 241.713 40.256 242.022 39.68C242.331 39.0933 242.486 38.416 242.486 37.648Z" fill="black"/>
<path d="M232.421 30.768V42H231.701V36.56H225.141V42H224.421V30.768H225.141V35.952H231.701V30.768H232.421Z" fill="black"/>
<path d="M221.797 33.312V42H221.077V40.112C220.831 40.7733 220.421 41.28 219.845 41.632C219.279 41.9733 218.629 42.144 217.893 42.144C216.858 42.144 216.01 41.8293 215.349 41.2C214.698 40.56 214.373 39.616 214.373 38.368V33.312H215.077V38.32C215.077 39.3547 215.338 40.1493 215.861 40.704C216.383 41.248 217.093 41.52 217.989 41.52C218.927 41.52 219.674 41.2213 220.229 40.624C220.794 40.0267 221.077 39.1413 221.077 37.968V33.312H221.797Z" fill="black"/>
<path d="M208.42 33.136C209.444 33.136 210.281 33.456 210.932 34.096C211.583 34.7253 211.908 35.664 211.908 36.912V42H211.204V36.96C211.204 35.9253 210.943 35.136 210.42 34.592C209.897 34.0373 209.188 33.76 208.292 33.76C207.353 33.76 206.601 34.0587 206.036 34.656C205.481 35.2533 205.204 36.1387 205.204 37.312V42H204.484V30.16H205.204V35.152C205.449 34.5013 205.86 34.0053 206.436 33.664C207.012 33.312 207.673 33.136 208.42 33.136Z" fill="black"/>
<path d="M202.77 30.768V31.376H199.57V42H198.85V31.376H195.65V30.768H202.77Z" fill="black"/>
<path d="M194.059 42.048C193.878 42.048 193.729 41.9893 193.611 41.872C193.494 41.7547 193.435 41.6053 193.435 41.424C193.435 41.2427 193.494 41.0933 193.611 40.976C193.729 40.8587 193.878 40.8 194.059 40.8C194.23 40.8 194.374 40.8587 194.491 40.976C194.609 41.0933 194.667 41.2427 194.667 41.424C194.667 41.6053 194.609 41.7547 194.491 41.872C194.374 41.9893 194.23 42.048 194.059 42.048Z" fill="black"/>
<path d="M192.594 33.312L189.858 42H189.17L186.402 34.304L183.618 42H182.93L180.194 33.312H180.946L183.282 41.184L186.066 33.312H186.754L189.522 41.152L191.858 33.312H192.594Z" fill="black"/>
<path d="M179.656 33.312L176.92 42H176.232L173.464 34.304L170.68 42H169.992L167.256 33.312H168.008L170.344 41.184L173.128 33.312H173.816L176.584 41.152L178.92 33.312H179.656Z" fill="black"/>
<path d="M166.719 33.312L163.983 42H163.295L160.527 34.304L157.743 42H157.055L154.319 33.312H155.071L157.407 41.184L160.191 33.312H160.879L163.647 41.152L165.983 33.312H166.719Z" fill="black"/>
<path d="M153.401 27.008L148.969 44.576H148.249L152.665 27.008H153.401Z" fill="black"/>
<path d="M146.994 27.008L142.562 44.576H141.842L146.258 27.008H146.994Z" fill="black"/>
<path d="M137.489 42.128C136.519 42.128 135.724 41.9147 135.105 41.488C134.497 41.0613 134.156 40.4533 134.081 39.664H134.817C134.871 40.2293 135.127 40.6773 135.585 41.008C136.055 41.3387 136.689 41.504 137.489 41.504C138.151 41.504 138.673 41.3387 139.057 41.008C139.452 40.6667 139.649 40.2507 139.649 39.76C139.649 39.4187 139.543 39.1413 139.329 38.928C139.127 38.704 138.871 38.5333 138.561 38.416C138.252 38.2987 137.831 38.1707 137.297 38.032C136.657 37.8613 136.14 37.696 135.745 37.536C135.351 37.3653 135.015 37.1147 134.737 36.784C134.46 36.4533 134.321 36.0107 134.321 35.456C134.321 35.0507 134.444 34.6773 134.689 34.336C134.935 33.984 135.276 33.7067 135.713 33.504C136.151 33.3013 136.647 33.2 137.201 33.2C138.108 33.2 138.839 33.4293 139.393 33.888C139.959 34.336 140.263 34.96 140.305 35.76H139.585C139.553 35.184 139.329 34.7147 138.913 34.352C138.497 33.9893 137.921 33.808 137.185 33.808C136.567 33.808 136.055 33.968 135.649 34.288C135.244 34.608 135.041 34.9973 135.041 35.456C135.041 35.8613 135.153 36.192 135.377 36.448C135.612 36.6933 135.895 36.8853 136.225 37.024C136.567 37.152 137.015 37.2907 137.569 37.44C138.177 37.6 138.663 37.76 139.025 37.92C139.399 38.0693 139.713 38.2933 139.969 38.592C140.225 38.88 140.353 39.2693 140.353 39.76C140.353 40.208 140.231 40.6133 139.985 40.976C139.74 41.3387 139.399 41.6213 138.961 41.824C138.524 42.0267 138.033 42.128 137.489 42.128Z" fill="black"/>
<path d="M124.548 35.6C124.793 34.896 125.236 34.32 125.876 33.872C126.526 33.424 127.31 33.2 128.228 33.2C129.038 33.2 129.758 33.3813 130.388 33.744C131.028 34.1067 131.524 34.624 131.876 35.296C132.238 35.968 132.42 36.752 132.42 37.648C132.42 38.544 132.238 39.3333 131.876 40.016C131.524 40.688 131.028 41.2107 130.388 41.584C129.758 41.9467 129.038 42.128 128.228 42.128C127.321 42.128 126.542 41.904 125.892 41.456C125.252 40.9973 124.804 40.4213 124.548 39.728V46.096H123.828V33.312H124.548V35.6ZM131.684 37.648C131.684 36.8587 131.534 36.176 131.236 35.6C130.937 35.024 130.516 34.5867 129.972 34.288C129.438 33.9787 128.82 33.824 128.116 33.824C127.444 33.824 126.836 33.984 126.292 34.304C125.748 34.6133 125.321 35.0613 125.012 35.648C124.702 36.224 124.548 36.8907 124.548 37.648C124.548 38.416 124.702 39.0933 125.012 39.68C125.321 40.256 125.748 40.704 126.292 41.024C126.836 41.3333 127.444 41.488 128.116 41.488C128.82 41.488 129.438 41.3333 129.972 41.024C130.516 40.7147 130.937 40.272 131.236 39.696C131.534 39.12 131.684 38.4373 131.684 37.648Z" fill="black"/>
<path d="M119.353 33.936V39.68C119.353 40.32 119.47 40.7627 119.705 41.008C119.939 41.2427 120.355 41.36 120.953 41.36H121.929V42H120.841C120.083 42 119.523 41.824 119.161 41.472C118.809 41.1093 118.633 40.512 118.633 39.68V33.936H117.321V33.312H118.633V31.104H119.353V33.312H121.929V33.936H119.353Z" fill="black"/>
<path d="M113.806 33.936V39.68C113.806 40.32 113.923 40.7627 114.158 41.008C114.393 41.2427 114.809 41.36 115.406 41.36H116.382V42H115.294C114.537 42 113.977 41.824 113.614 41.472C113.262 41.1093 113.086 40.512 113.086 39.68V33.936H111.774V33.312H113.086V31.104H113.806V33.312H116.382V33.936H113.806Z" fill="black"/>
<path d="M106.701 33.136C107.725 33.136 108.562 33.456 109.213 34.096C109.864 34.7253 110.189 35.664 110.189 36.912V42H109.485V36.96C109.485 35.9253 109.224 35.136 108.701 34.592C108.178 34.0373 107.469 33.76 106.573 33.76C105.634 33.76 104.882 34.0587 104.317 34.656C103.762 35.2533 103.485 36.1387 103.485 37.312V42H102.765V30.16H103.485V35.152C103.73 34.5013 104.141 34.0053 104.717 33.664C105.293 33.312 105.954 33.136 106.701 33.136Z" fill="black"/>
<path fill-rule="evenodd" clip-rule="evenodd" d="M35.3356 27.2526C35.7484 26.8857 36.3805 26.9229 36.7474 27.3356L52.7474 45.3356C53.1143 45.7484 53.0772 46.3805 52.6644 46.7474C52.2516 47.1143 51.6195 47.0772 51.2526 46.6644L35.2526 28.6644C34.8857 28.2516 34.9229 27.6195 35.3356 27.2526Z" fill="black"/>
<path fill-rule="evenodd" clip-rule="evenodd" d="M52.6644 27.2526C53.0772 27.6195 53.1143 28.2516 52.7474 28.6644L36.7474 46.6644C36.3805 47.0772 35.7484 47.1143 35.3356 46.7474C34.9229 46.3805 34.8857 45.7484 35.2526 45.3356L51.2526 27.3356C51.6195 26.9229 52.2516 26.8857 52.6644 27.2526Z" fill="black"/>
<path fill-rule="evenodd" clip-rule="evenodd" d="M69.3916 27.2064C69.8299 26.8704 70.4576 26.9533 70.7936 27.3916L81.5 41.3564L92.2064 27.3916C92.5424 26.9533 93.1701 26.8704 93.6084 27.2064C94.0467 27.5424 94.1296 28.1701 93.7936 28.6084L82.2936 43.6084C82.1044 43.8553 81.811 44 81.5 44C81.189 44 80.8956 43.8553 80.7064 43.6084L69.2064 28.6084C68.8704 28.1701 68.9533 27.5424 69.3916 27.2064Z" fill="black"/>
<path d="M329.406 29.3889C331.391 29.3889 333 27.9587 333 26.1944C333 24.4302 331.391 23 329.406 23C327.421 23 325.812 24.4302 325.812 26.1944C325.812 27.9587 327.421 29.3889 329.406 29.3889Z" fill="white"/>
<path fill-rule="evenodd" clip-rule="evenodd" d="M324.812 26.1944C324.812 23.7704 326.983 22 329.406 22C331.829 22 334 23.7704 334 26.1944C334 28.6184 331.829 30.3889 329.406 30.3889C326.983 30.3889 324.812 28.6184 324.812 26.1944ZM329.406 24C327.86 24 326.812 25.09 326.812 26.1944C326.812 27.2989 327.86 28.3889 329.406 28.3889C330.953 28.3889 332 27.2989 332 26.1944C332 25.09 330.953 24 329.406 24Z" fill="black"/>
<path d="M313.594 37.6944C315.579 37.6944 317.188 36.2642 317.188 34.5C317.188 32.7358 315.579 31.3055 313.594 31.3055C311.609 31.3055 310 32.7358 310 34.5C310 36.2642 311.609 37.6944 313.594 37.6944Z" fill="white"/>
<path fill-rule="evenodd" clip-rule="evenodd" d="M309 34.5C309 32.076 311.171 30.3055 313.594 30.3055C316.017 30.3055 318.188 32.076 318.188 34.5C318.188 36.924 316.017 38.6944 313.594 38.6944C311.171 38.6944 309 36.924 309 34.5ZM313.594 32.3055C312.047 32.3055 311 33.3955 311 34.5C311 35.6045 312.047 36.6944 313.594 36.6944C315.14 36.6944 316.188 35.6045 316.188 34.5C316.188 33.3955 315.14 32.3055 313.594 32.3055Z" fill="black"/>
<path fill-rule="evenodd" clip-rule="evenodd" d="M326.693 27.3651C326.955 27.8514 326.773 28.4578 326.287 28.7197L317.187 33.6206C316.7 33.8824 316.094 33.7005 315.832 33.2143C315.57 32.728 315.752 32.1216 316.238 31.8597L325.339 26.9588C325.825 26.697 326.431 26.8789 326.693 27.3651Z" fill="black"/>
<path fill-rule="evenodd" clip-rule="evenodd" d="M315.827 35.673C316.084 35.1841 316.688 34.9959 317.177 35.2527L326.765 40.2891C327.254 40.5459 327.443 41.1505 327.186 41.6394C326.929 42.1284 326.324 42.3165 325.835 42.0597L316.247 37.0234C315.758 36.7665 315.57 36.162 315.827 35.673Z" fill="black"/>
<path d="M329.406 39.6111C331.391 39.6111 333 41.0413 333 42.8055C333 44.5698 331.391 46 329.406 46C327.421 46 325.812 44.5698 325.812 42.8055C325.812 41.0413 327.421 39.6111 329.406 39.6111Z" fill="white"/>
<path fill-rule="evenodd" clip-rule="evenodd" d="M329.406 40.6111C327.86 40.6111 326.812 41.7011 326.812 42.8055C326.812 43.91 327.86 45 329.406 45C330.953 45 332 43.91 332 42.8055C332 41.7011 330.953 40.6111 329.406 40.6111ZM324.812 42.8055C324.812 40.3815 326.983 38.6111 329.406 38.6111C331.829 38.6111 334 40.3815 334 42.8055C334 45.2295 331.829 47 329.406 47C326.983 47 324.812 45.2295 324.812 42.8055Z" fill="black"/>
<rect width="408" height="52" transform="translate(4 7)" fill="white"/>
<path d="M286.356 42.048C286.175 42.048 286.026 41.9893 285.908 41.872C285.791 41.7547 285.732 41.6053 285.732 41.424C285.732 41.2427 285.791 41.0933 285.908 40.976C286.026 40.8587 286.175 40.8 286.356 40.8C286.527 40.8 286.671 40.8587 286.788 40.976C286.906 41.0933 286.964 41.2427 286.964 41.424C286.964 41.6053 286.906 41.7547 286.788 41.872C286.671 41.9893 286.527 42.048 286.356 42.048Z" fill="black"/>
<path d="M283.966 42.048C283.784 42.048 283.635 41.9893 283.518 41.872C283.4 41.7547 283.342 41.6053 283.342 41.424C283.342 41.2427 283.4 41.0933 283.518 40.976C283.635 40.8587 283.784 40.8 283.966 40.8C284.136 40.8 284.28 40.8587 284.398 40.976C284.515 41.0933 284.574 41.2427 284.574 41.424C284.574 41.6053 284.515 41.7547 284.398 41.872C284.28 41.9893 284.136 42.048 283.966 42.048Z" fill="black"/>
<path d="M281.575 42.048C281.394 42.048 281.244 41.9893 281.127 41.872C281.01 41.7547 280.951 41.6053 280.951 41.424C280.951 41.2427 281.01 41.0933 281.127 40.976C281.244 40.8587 281.394 40.8 281.575 40.8C281.746 40.8 281.89 40.8587 282.007 40.976C282.124 41.0933 282.183 41.2427 282.183 41.424C282.183 41.6053 282.124 41.7547 282.007 41.872C281.89 41.9893 281.746 42.048 281.575 42.048Z" fill="black"/>
<path d="M279.511 37.072C279.511 37.456 279.5 37.744 279.479 37.936H271.975C271.996 38.7147 272.167 39.3707 272.487 39.904C272.807 40.4373 273.228 40.8373 273.751 41.104C274.274 41.3707 274.844 41.504 275.463 41.504C276.316 41.504 277.031 41.296 277.607 40.88C278.183 40.4533 278.546 39.8773 278.695 39.152H279.447C279.276 40.0373 278.839 40.7573 278.135 41.312C277.431 41.856 276.54 42.128 275.463 42.128C274.652 42.128 273.927 41.9467 273.287 41.584C272.647 41.2213 272.146 40.704 271.783 40.032C271.42 39.3493 271.239 38.5547 271.239 37.648C271.239 36.7413 271.415 35.952 271.767 35.28C272.13 34.608 272.631 34.096 273.271 33.744C273.911 33.3813 274.642 33.2 275.463 33.2C276.295 33.2 277.015 33.3813 277.623 33.744C278.242 34.096 278.711 34.5707 279.031 35.168C279.351 35.7547 279.511 36.3893 279.511 37.072ZM278.791 37.344C278.823 36.576 278.684 35.9253 278.375 35.392C278.076 34.8587 277.666 34.464 277.143 34.208C276.62 33.9413 276.055 33.808 275.447 33.808C274.839 33.808 274.274 33.9413 273.751 34.208C273.239 34.464 272.818 34.8587 272.487 35.392C272.167 35.9253 271.996 36.576 271.975 37.344H278.791Z" fill="black"/>
<path d="M269.843 33.952H267.587V42H266.867V33.952H265.555V33.312H266.867V32.704C266.867 31.7973 267.096 31.1253 267.555 30.688C268.013 30.24 268.765 30.016 269.811 30.016V30.656C268.979 30.656 268.397 30.816 268.067 31.136C267.747 31.456 267.587 31.9787 267.587 32.704V33.312H269.843V33.952Z" fill="black"/>
<path d="M255.317 37.648C255.317 36.752 255.493 35.968 255.845 35.296C256.208 34.624 256.704 34.1067 257.333 33.744C257.973 33.3813 258.698 33.2 259.509 33.2C260.426 33.2 261.205 33.424 261.845 33.872C262.485 34.32 262.933 34.8907 263.189 35.584V33.312H263.909V42H263.189V39.712C262.933 40.416 262.48 40.9973 261.829 41.456C261.189 41.904 260.416 42.128 259.509 42.128C258.698 42.128 257.973 41.9467 257.333 41.584C256.704 41.2107 256.208 40.688 255.845 40.016C255.493 39.3333 255.317 38.544 255.317 37.648ZM263.189 37.648C263.189 36.8907 263.029 36.224 262.709 35.648C262.4 35.0613 261.973 34.6133 261.429 34.304C260.885 33.984 260.277 33.824 259.605 33.824C258.901 33.824 258.282 33.9787 257.749 34.288C257.216 34.5867 256.8 35.024 256.501 35.6C256.202 36.176 256.053 36.8587 256.053 37.648C256.053 38.4373 256.202 39.12 256.501 39.696C256.8 40.272 257.216 40.7147 257.749 41.024C258.293 41.3333 258.912 41.488 259.605 41.488C260.277 41.488 260.885 41.3333 261.429 41.024C261.984 40.704 262.416 40.256 262.725 39.68C263.034 39.0933 263.189 38.416 263.189 37.648Z" fill="black"/>
<path d="M245.38 37.648C245.38 36.7413 245.556 35.952 245.908 35.28C246.27 34.608 246.766 34.096 247.396 33.744C248.036 33.3813 248.766 33.2 249.588 33.2C250.676 33.2 251.566 33.472 252.26 34.016C252.964 34.56 253.401 35.2907 253.572 36.208H252.82C252.681 35.4613 252.318 34.8747 251.732 34.448C251.156 34.0213 250.441 33.808 249.588 33.808C248.948 33.808 248.366 33.952 247.844 34.24C247.321 34.5173 246.9 34.9493 246.58 35.536C246.27 36.112 246.116 36.816 246.116 37.648C246.116 38.4907 246.27 39.2 246.58 39.776C246.9 40.352 247.321 40.784 247.844 41.072C248.366 41.36 248.948 41.504 249.588 41.504C250.441 41.504 251.156 41.2907 251.732 40.864C252.318 40.4373 252.681 39.8507 252.82 39.104H253.572C253.401 40.0107 252.964 40.7413 252.26 41.296C251.556 41.8507 250.665 42.128 249.588 42.128C248.766 42.128 248.036 41.9467 247.396 41.584C246.766 41.2213 246.27 40.704 245.908 40.032C245.556 39.3493 245.38 38.5547 245.38 37.648Z" fill="black"/>
<path d="M234.614 37.648C234.614 36.752 234.79 35.968 235.142 35.296C235.505 34.624 236.001 34.1067 236.63 33.744C237.27 33.3813 237.995 33.2 238.806 33.2C239.723 33.2 240.502 33.424 241.142 33.872C241.782 34.32 242.23 34.8907 242.486 35.584V33.312H243.206V42H242.486V39.712C242.23 40.416 241.777 40.9973 241.126 41.456C240.486 41.904 239.713 42.128 238.806 42.128C237.995 42.128 237.27 41.9467 236.63 41.584C236.001 41.2107 235.505 40.688 235.142 40.016C234.79 39.3333 234.614 38.544 234.614 37.648ZM242.486 37.648C242.486 36.8907 242.326 36.224 242.006 35.648C241.697 35.0613 241.27 34.6133 240.726 34.304C240.182 33.984 239.574 33.824 238.902 33.824C238.198 33.824 237.579 33.9787 237.046 34.288C236.513 34.5867 236.097 35.024 235.798 35.6C235.499 36.176 235.35 36.8587 235.35 37.648C235.35 38.4373 235.499 39.12 235.798 39.696C236.097 40.272 236.513 40.7147 237.046 41.024C237.59 41.3333 238.209 41.488 238.902 41.488C239.574 41.488 240.182 41.3333 240.726 41.024C241.281 40.704 241.713 40.256 242.022 39.68C242.331 39.0933 242.486 38.416 242.486 37.648Z" fill="black"/>
<path d="M232.421 30.768V42H231.701V36.56H225.141V42H224.421V30.768H225.141V35.952H231.701V30.768H232.421Z" fill="black"/>
<path d="M221.797 33.312V42H221.077V40.112C220.831 40.7733 220.421 41.28 219.845 41.632C219.279 41.9733 218.629 42.144 217.893 42.144C216.858 42.144 216.01 41.8293 215.349 41.2C214.698 40.56 214.373 39.616 214.373 38.368V33.312H215.077V38.32C215.077 39.3547 215.338 40.1493 215.861 40.704C216.383 41.248 217.093 41.52 217.989 41.52C218.927 41.52 219.674 41.2213 220.229 40.624C220.794 40.0267 221.077 39.1413 221.077 37.968V33.312H221.797Z" fill="black"/>
<path d="M208.42 33.136C209.444 33.136 210.281 33.456 210.932 34.096C211.583 34.7253 211.908 35.664 211.908 36.912V42H211.204V36.96C211.204 35.9253 210.943 35.136 210.42 34.592C209.897 34.0373 209.188 33.76 208.292 33.76C207.353 33.76 206.601 34.0587 206.036 34.656C205.481 35.2533 205.204 36.1387 205.204 37.312V42H204.484V30.16H205.204V35.152C205.449 34.5013 205.86 34.0053 206.436 33.664C207.012 33.312 207.673 33.136 208.42 33.136Z" fill="black"/>
<path d="M202.77 30.768V31.376H199.57V42H198.85V31.376H195.65V30.768H202.77Z" fill="black"/>
<path d="M194.059 42.048C193.878 42.048 193.729 41.9893 193.611 41.872C193.494 41.7547 193.435 41.6053 193.435 41.424C193.435 41.2427 193.494 41.0933 193.611 40.976C193.729 40.8587 193.878 40.8 194.059 40.8C194.23 40.8 194.374 40.8587 194.491 40.976C194.609 41.0933 194.667 41.2427 194.667 41.424C194.667 41.6053 194.609 41.7547 194.491 41.872C194.374 41.9893 194.23 42.048 194.059 42.048Z" fill="black"/>
<path d="M192.594 33.312L189.858 42H189.17L186.402 34.304L183.618 42H182.93L180.194 33.312H180.946L183.282 41.184L186.066 33.312H186.754L189.522 41.152L191.858 33.312H192.594Z" fill="black"/>
<path d="M179.656 33.312L176.92 42H176.232L173.464 34.304L170.68 42H169.992L167.256 33.312H168.008L170.344 41.184L173.128 33.312H173.816L176.584 41.152L178.92 33.312H179.656Z" fill="black"/>
<path d="M166.719 33.312L163.983 42H163.295L160.527 34.304L157.743 42H157.055L154.319 33.312H155.071L157.407 41.184L160.191 33.312H160.879L163.647 41.152L165.983 33.312H166.719Z" fill="black"/>
<path d="M153.401 27.008L148.969 44.576H148.249L152.665 27.008H153.401Z" fill="black"/>
<path d="M146.994 27.008L142.562 44.576H141.842L146.258 27.008H146.994Z" fill="black"/>
<path d="M137.489 42.128C136.519 42.128 135.724 41.9147 135.105 41.488C134.497 41.0613 134.156 40.4533 134.081 39.664H134.817C134.871 40.2293 135.127 40.6773 135.585 41.008C136.055 41.3387 136.689 41.504 137.489 41.504C138.151 41.504 138.673 41.3387 139.057 41.008C139.452 40.6667 139.649 40.2507 139.649 39.76C139.649 39.4187 139.543 39.1413 139.329 38.928C139.127 38.704 138.871 38.5333 138.561 38.416C138.252 38.2987 137.831 38.1707 137.297 38.032C136.657 37.8613 136.14 37.696 135.745 37.536C135.351 37.3653 135.015 37.1147 134.737 36.784C134.46 36.4533 134.321 36.0107 134.321 35.456C134.321 35.0507 134.444 34.6773 134.689 34.336C134.935 33.984 135.276 33.7067 135.713 33.504C136.151 33.3013 136.647 33.2 137.201 33.2C138.108 33.2 138.839 33.4293 139.393 33.888C139.959 34.336 140.263 34.96 140.305 35.76H139.585C139.553 35.184 139.329 34.7147 138.913 34.352C138.497 33.9893 137.921 33.808 137.185 33.808C136.567 33.808 136.055 33.968 135.649 34.288C135.244 34.608 135.041 34.9973 135.041 35.456C135.041 35.8613 135.153 36.192 135.377 36.448C135.612 36.6933 135.895 36.8853 136.225 37.024C136.567 37.152 137.015 37.2907 137.569 37.44C138.177 37.6 138.663 37.76 139.025 37.92C139.399 38.0693 139.713 38.2933 139.969 38.592C140.225 38.88 140.353 39.2693 140.353 39.76C140.353 40.208 140.231 40.6133 139.985 40.976C139.74 41.3387 139.399 41.6213 138.961 41.824C138.524 42.0267 138.033 42.128 137.489 42.128Z" fill="black"/>
<path d="M124.548 35.6C124.793 34.896 125.236 34.32 125.876 33.872C126.526 33.424 127.31 33.2 128.228 33.2C129.038 33.2 129.758 33.3813 130.388 33.744C131.028 34.1067 131.524 34.624 131.876 35.296C132.238 35.968 132.42 36.752 132.42 37.648C132.42 38.544 132.238 39.3333 131.876 40.016C131.524 40.688 131.028 41.2107 130.388 41.584C129.758 41.9467 129.038 42.128 128.228 42.128C127.321 42.128 126.542 41.904 125.892 41.456C125.252 40.9973 124.804 40.4213 124.548 39.728V46.096H123.828V33.312H124.548V35.6ZM131.684 37.648C131.684 36.8587 131.534 36.176 131.236 35.6C130.937 35.024 130.516 34.5867 129.972 34.288C129.438 33.9787 128.82 33.824 128.116 33.824C127.444 33.824 126.836 33.984 126.292 34.304C125.748 34.6133 125.321 35.0613 125.012 35.648C124.702 36.224 124.548 36.8907 124.548 37.648C124.548 38.416 124.702 39.0933 125.012 39.68C125.321 40.256 125.748 40.704 126.292 41.024C126.836 41.3333 127.444 41.488 128.116 41.488C128.82 41.488 129.438 41.3333 129.972 41.024C130.516 40.7147 130.937 40.272 131.236 39.696C131.534 39.12 131.684 38.4373 131.684 37.648Z" fill="black"/>
<path d="M119.353 33.936V39.68C119.353 40.32 119.47 40.7627 119.705 41.008C119.939 41.2427 120.355 41.36 120.953 41.36H121.929V42H120.841C120.083 42 119.523 41.824 119.161 41.472C118.809 41.1093 118.633 40.512 118.633 39.68V33.936H117.321V33.312H118.633V31.104H119.353V33.312H121.929V33.936H119.353Z" fill="black"/>
<path d="M113.806 33.936V39.68C113.806 40.32 113.923 40.7627 114.158 41.008C114.393 41.2427 114.809 41.36 115.406 41.36H116.382V42H115.294C114.537 42 113.977 41.824 113.614 41.472C113.262 41.1093 113.086 40.512 113.086 39.68V33.936H111.774V33.312H113.086V31.104H113.806V33.312H116.382V33.936H113.806Z" fill="black"/>
<path d="M106.701 33.136C107.725 33.136 108.562 33.456 109.213 34.096C109.864 34.7253 110.189 35.664 110.189 36.912V42H109.485V36.96C109.485 35.9253 109.224 35.136 108.701 34.592C108.178 34.0373 107.469 33.76 106.573 33.76C105.634 33.76 104.882 34.0587 104.317 34.656C103.762 35.2533 103.485 36.1387 103.485 37.312V42H102.765V30.16H103.485V35.152C103.73 34.5013 104.141 34.0053 104.717 33.664C105.293 33.312 105.954 33.136 106.701 33.136Z" fill="black"/>
<path fill-rule="evenodd" clip-rule="evenodd" d="M35.3356 27.2526C35.7484 26.8857 36.3805 26.9229 36.7474 27.3356L52.7474 45.3356C53.1143 45.7484 53.0772 46.3805 52.6644 46.7474C52.2516 47.1143 51.6195 47.0772 51.2526 46.6644L35.2526 28.6644C34.8857 28.2516 34.9229 27.6195 35.3356 27.2526Z" fill="black"/>
<path fill-rule="evenodd" clip-rule="evenodd" d="M52.6644 27.2526C53.0772 27.6195 53.1143 28.2516 52.7474 28.6644L36.7474 46.6644C36.3805 47.0772 35.7484 47.1143 35.3356 46.7474C34.9229 46.3805 34.8857 45.7484 35.2526 45.3356L51.2526 27.3356C51.6195 26.9229 52.2516 26.8857 52.6644 27.2526Z" fill="black"/>
<path fill-rule="evenodd" clip-rule="evenodd" d="M69.3916 27.2064C69.8299 26.8704 70.4576 26.9533 70.7936 27.3916L81.5 41.3564L92.2064 27.3916C92.5424 26.9533 93.1701 26.8704 93.6084 27.2064C94.0467 27.5424 94.1296 28.1701 93.7936 28.6084L82.2936 43.6084C82.1044 43.8553 81.811 44 81.5 44C81.189 44 80.8956 43.8553 80.7064 43.6084L69.2064 28.6084C68.8704 28.1701 68.9533 27.5424 69.3916 27.2064Z" fill="black"/>
<path d="M329.406 29.3889C331.391 29.3889 333 27.9587 333 26.1944C333 24.4302 331.391 23 329.406 23C327.421 23 325.812 24.4302 325.812 26.1944C325.812 27.9587 327.421 29.3889 329.406 29.3889Z" fill="white"/>
<path fill-rule="evenodd" clip-rule="evenodd" d="M324.812 26.1944C324.812 23.7704 326.983 22 329.406 22C331.829 22 334 23.7704 334 26.1944C334 28.6184 331.829 30.3889 329.406 30.3889C326.983 30.3889 324.812 28.6184 324.812 26.1944ZM329.406 24C327.86 24 326.812 25.09 326.812 26.1944C326.812 27.2989 327.86 28.3889 329.406 28.3889C330.953 28.3889 332 27.2989 332 26.1944C332 25.09 330.953 24 329.406 24Z" fill="black"/>
<path d="M313.594 37.6944C315.579 37.6944 317.188 36.2642 317.188 34.5C317.188 32.7358 315.579 31.3055 313.594 31.3055C311.609 31.3055 310 32.7358 310 34.5C310 36.2642 311.609 37.6944 313.594 37.6944Z" fill="white"/>
<path fill-rule="evenodd" clip-rule="evenodd" d="M309 34.5C309 32.076 311.171 30.3055 313.594 30.3055C316.017 30.3055 318.188 32.076 318.188 34.5C318.188 36.924 316.017 38.6944 313.594 38.6944C311.171 38.6944 309 36.924 309 34.5ZM313.594 32.3055C312.047 32.3055 311 33.3955 311 34.5C311 35.6045 312.047 36.6944 313.594 36.6944C315.14 36.6944 316.188 35.6045 316.188 34.5C316.188 33.3955 315.14 32.3055 313.594 32.3055Z" fill="black"/>
<path fill-rule="evenodd" clip-rule="evenodd" d="M326.693 27.3651C326.955 27.8514 326.773 28.4578 326.287 28.7197L317.187 33.6206C316.7 33.8824 316.094 33.7005 315.832 33.2143C315.57 32.728 315.752 32.1216 316.238 31.8597L325.339 26.9588C325.825 26.697 326.431 26.8789 326.693 27.3651Z" fill="black"/>
<path fill-rule="evenodd" clip-rule="evenodd" d="M315.827 35.673C316.084 35.1841 316.688 34.9959 317.177 35.2527L326.765 40.2891C327.254 40.5459 327.443 41.1505 327.186 41.6394C326.929 42.1284 326.324 42.3165 325.835 42.0597L316.247 37.0234C315.758 36.7665 315.57 36.162 315.827 35.673Z" fill="black"/>
<path d="M329.406 39.6111C331.391 39.6111 333 41.0413 333 42.8055C333 44.5698 331.391 46 329.406 46C327.421 46 325.812 44.5698 325.812 42.8055C325.812 41.0413 327.421 39.6111 329.406 39.6111Z" fill="white"/>
<path fill-rule="evenodd" clip-rule="evenodd" d="M329.406 40.6111C327.86 40.6111 326.812 41.7011 326.812 42.8055C326.812 43.91 327.86 45 329.406 45C330.953 45 332 43.91 332 42.8055C332 41.7011 330.953 40.6111 329.406 40.6111ZM324.812 42.8055C324.812 40.3815 326.983 38.6111 329.406 38.6111C331.829 38.6111 334 40.3815 334 42.8055C334 45.2295 331.829 47 329.406 47C326.983 47 324.812 45.2295 324.812 42.8055Z" fill="black"/>
<rect width="408" height="52" fill="white"/>
<path d="M282.356 35.048C282.175 35.048 282.026 34.9893 281.908 34.872C281.791 34.7547 281.732 34.6053 281.732 34.424C281.732 34.2427 281.791 34.0933 281.908 33.976C282.026 33.8587 282.175 33.8 282.356 33.8C282.527 33.8 282.671 33.8587 282.788 33.976C282.906 34.0933 282.964 34.2427 282.964 34.424C282.964 34.6053 282.906 34.7547 282.788 34.872C282.671 34.9893 282.527 35.048 282.356 35.048Z" fill="black"/>
<path d="M279.966 35.048C279.784 35.048 279.635 34.9893 279.518 34.872C279.4 34.7547 279.342 34.6053 279.342 34.424C279.342 34.2427 279.4 34.0933 279.518 33.976C279.635 33.8587 279.784 33.8 279.966 33.8C280.136 33.8 280.28 33.8587 280.398 33.976C280.515 34.0933 280.574 34.2427 280.574 34.424C280.574 34.6053 280.515 34.7547 280.398 34.872C280.28 34.9893 280.136 35.048 279.966 35.048Z" fill="black"/>
<path d="M277.575 35.048C277.394 35.048 277.244 34.9893 277.127 34.872C277.01 34.7547 276.951 34.6053 276.951 34.424C276.951 34.2427 277.01 34.0933 277.127 33.976C277.244 33.8587 277.394 33.8 277.575 33.8C277.746 33.8 277.89 33.8587 278.007 33.976C278.124 34.0933 278.183 34.2427 278.183 34.424C278.183 34.6053 278.124 34.7547 278.007 34.872C277.89 34.9893 277.746 35.048 277.575 35.048Z" fill="black"/>
<path d="M275.511 30.072C275.511 30.456 275.5 30.744 275.479 30.936H267.975C267.996 31.7147 268.167 32.3707 268.487 32.904C268.807 33.4373 269.228 33.8373 269.751 34.104C270.274 34.3707 270.844 34.504 271.463 34.504C272.316 34.504 273.031 34.296 273.607 33.88C274.183 33.4533 274.546 32.8773 274.695 32.152H275.447C275.276 33.0373 274.839 33.7573 274.135 34.312C273.431 34.856 272.54 35.128 271.463 35.128C270.652 35.128 269.927 34.9467 269.287 34.584C268.647 34.2213 268.146 33.704 267.783 33.032C267.42 32.3493 267.239 31.5547 267.239 30.648C267.239 29.7413 267.415 28.952 267.767 28.28C268.13 27.608 268.631 27.096 269.271 26.744C269.911 26.3813 270.642 26.2 271.463 26.2C272.295 26.2 273.015 26.3813 273.623 26.744C274.242 27.096 274.711 27.5707 275.031 28.168C275.351 28.7547 275.511 29.3893 275.511 30.072ZM274.791 30.344C274.823 29.576 274.684 28.9253 274.375 28.392C274.076 27.8587 273.666 27.464 273.143 27.208C272.62 26.9413 272.055 26.808 271.447 26.808C270.839 26.808 270.274 26.9413 269.751 27.208C269.239 27.464 268.818 27.8587 268.487 28.392C268.167 28.9253 267.996 29.576 267.975 30.344H274.791Z" fill="black"/>
<path d="M265.843 26.952H263.587V35H262.867V26.952H261.555V26.312H262.867V25.704C262.867 24.7973 263.096 24.1253 263.555 23.688C264.013 23.24 264.765 23.016 265.811 23.016V23.656C264.979 23.656 264.397 23.816 264.067 24.136C263.747 24.456 263.587 24.9787 263.587 25.704V26.312H265.843V26.952Z" fill="black"/>
<path d="M251.317 30.648C251.317 29.752 251.493 28.968 251.845 28.296C252.208 27.624 252.704 27.1067 253.333 26.744C253.973 26.3813 254.698 26.2 255.509 26.2C256.426 26.2 257.205 26.424 257.845 26.872C258.485 27.32 258.933 27.8907 259.189 28.584V26.312H259.909V35H259.189V32.712C258.933 33.416 258.48 33.9973 257.829 34.456C257.189 34.904 256.416 35.128 255.509 35.128C254.698 35.128 253.973 34.9467 253.333 34.584C252.704 34.2107 252.208 33.688 251.845 33.016C251.493 32.3333 251.317 31.544 251.317 30.648ZM259.189 30.648C259.189 29.8907 259.029 29.224 258.709 28.648C258.4 28.0613 257.973 27.6133 257.429 27.304C256.885 26.984 256.277 26.824 255.605 26.824C254.901 26.824 254.282 26.9787 253.749 27.288C253.216 27.5867 252.8 28.024 252.501 28.6C252.202 29.176 252.053 29.8587 252.053 30.648C252.053 31.4373 252.202 32.12 252.501 32.696C252.8 33.272 253.216 33.7147 253.749 34.024C254.293 34.3333 254.912 34.488 255.605 34.488C256.277 34.488 256.885 34.3333 257.429 34.024C257.984 33.704 258.416 33.256 258.725 32.68C259.034 32.0933 259.189 31.416 259.189 30.648Z" fill="black"/>
<path d="M241.38 30.648C241.38 29.7413 241.556 28.952 241.908 28.28C242.27 27.608 242.766 27.096 243.396 26.744C244.036 26.3813 244.766 26.2 245.588 26.2C246.676 26.2 247.566 26.472 248.26 27.016C248.964 27.56 249.401 28.2907 249.572 29.208H248.82C248.681 28.4613 248.318 27.8747 247.732 27.448C247.156 27.0213 246.441 26.808 245.588 26.808C244.948 26.808 244.366 26.952 243.844 27.24C243.321 27.5173 242.9 27.9493 242.58 28.536C242.27 29.112 242.116 29.816 242.116 30.648C242.116 31.4907 242.27 32.2 242.58 32.776C242.9 33.352 243.321 33.784 243.844 34.072C244.366 34.36 244.948 34.504 245.588 34.504C246.441 34.504 247.156 34.2907 247.732 33.864C248.318 33.4373 248.681 32.8507 248.82 32.104H249.572C249.401 33.0107 248.964 33.7413 248.26 34.296C247.556 34.8507 246.665 35.128 245.588 35.128C244.766 35.128 244.036 34.9467 243.396 34.584C242.766 34.2213 242.27 33.704 241.908 33.032C241.556 32.3493 241.38 31.5547 241.38 30.648Z" fill="black"/>
<path d="M230.614 30.648C230.614 29.752 230.79 28.968 231.142 28.296C231.505 27.624 232.001 27.1067 232.63 26.744C233.27 26.3813 233.995 26.2 234.806 26.2C235.723 26.2 236.502 26.424 237.142 26.872C237.782 27.32 238.23 27.8907 238.486 28.584V26.312H239.206V35H238.486V32.712C238.23 33.416 237.777 33.9973 237.126 34.456C236.486 34.904 235.713 35.128 234.806 35.128C233.995 35.128 233.27 34.9467 232.63 34.584C232.001 34.2107 231.505 33.688 231.142 33.016C230.79 32.3333 230.614 31.544 230.614 30.648ZM238.486 30.648C238.486 29.8907 238.326 29.224 238.006 28.648C237.697 28.0613 237.27 27.6133 236.726 27.304C236.182 26.984 235.574 26.824 234.902 26.824C234.198 26.824 233.579 26.9787 233.046 27.288C232.513 27.5867 232.097 28.024 231.798 28.6C231.499 29.176 231.35 29.8587 231.35 30.648C231.35 31.4373 231.499 32.12 231.798 32.696C232.097 33.272 232.513 33.7147 233.046 34.024C233.59 34.3333 234.209 34.488 234.902 34.488C235.574 34.488 236.182 34.3333 236.726 34.024C237.281 33.704 237.713 33.256 238.022 32.68C238.331 32.0933 238.486 31.416 238.486 30.648Z" fill="black"/>
<path d="M228.421 23.768V35H227.701V29.56H221.141V35H220.421V23.768H221.141V28.952H227.701V23.768H228.421Z" fill="black"/>
<path d="M217.797 26.312V35H217.077V33.112C216.831 33.7733 216.421 34.28 215.845 34.632C215.279 34.9733 214.629 35.144 213.893 35.144C212.858 35.144 212.01 34.8293 211.349 34.2C210.698 33.56 210.373 32.616 210.373 31.368V26.312H211.077V31.32C211.077 32.3547 211.338 33.1493 211.861 33.704C212.383 34.248 213.093 34.52 213.989 34.52C214.927 34.52 215.674 34.2213 216.229 33.624C216.794 33.0267 217.077 32.1413 217.077 30.968V26.312H217.797Z" fill="black"/>
<path d="M204.42 26.136C205.444 26.136 206.281 26.456 206.932 27.096C207.583 27.7253 207.908 28.664 207.908 29.912V35H207.204V29.96C207.204 28.9253 206.943 28.136 206.42 27.592C205.897 27.0373 205.188 26.76 204.292 26.76C203.353 26.76 202.601 27.0587 202.036 27.656C201.481 28.2533 201.204 29.1387 201.204 30.312V35H200.484V23.16H201.204V28.152C201.449 27.5013 201.86 27.0053 202.436 26.664C203.012 26.312 203.673 26.136 204.42 26.136Z" fill="black"/>
<path d="M198.77 23.768V24.376H195.57V35H194.85V24.376H191.65V23.768H198.77Z" fill="black"/>
<path d="M190.059 35.048C189.878 35.048 189.729 34.9893 189.611 34.872C189.494 34.7547 189.435 34.6053 189.435 34.424C189.435 34.2427 189.494 34.0933 189.611 33.976C189.729 33.8587 189.878 33.8 190.059 33.8C190.23 33.8 190.374 33.8587 190.491 33.976C190.609 34.0933 190.667 34.2427 190.667 34.424C190.667 34.6053 190.609 34.7547 190.491 34.872C190.374 34.9893 190.23 35.048 190.059 35.048Z" fill="black"/>
<path d="M188.594 26.312L185.858 35H185.17L182.402 27.304L179.618 35H178.93L176.194 26.312H176.946L179.282 34.184L182.066 26.312H182.754L185.522 34.152L187.858 26.312H188.594Z" fill="black"/>
<path d="M175.656 26.312L172.92 35H172.232L169.464 27.304L166.68 35H165.992L163.256 26.312H164.008L166.344 34.184L169.128 26.312H169.816L172.584 34.152L174.92 26.312H175.656Z" fill="black"/>
<path d="M162.719 26.312L159.983 35H159.295L156.527 27.304L153.743 35H153.055L150.319 26.312H151.071L153.407 34.184L156.191 26.312H156.879L159.647 34.152L161.983 26.312H162.719Z" fill="black"/>
<path d="M149.401 20.008L144.969 37.576H144.249L148.665 20.008H149.401Z" fill="black"/>
<path d="M142.994 20.008L138.562 37.576H137.842L142.258 20.008H142.994Z" fill="black"/>
<path d="M133.489 35.128C132.519 35.128 131.724 34.9147 131.105 34.488C130.497 34.0613 130.156 33.4533 130.081 32.664H130.817C130.871 33.2293 131.127 33.6773 131.585 34.008C132.055 34.3387 132.689 34.504 133.489 34.504C134.151 34.504 134.673 34.3387 135.057 34.008C135.452 33.6667 135.649 33.2507 135.649 32.76C135.649 32.4187 135.543 32.1413 135.329 31.928C135.127 31.704 134.871 31.5333 134.561 31.416C134.252 31.2987 133.831 31.1707 133.297 31.032C132.657 30.8613 132.14 30.696 131.745 30.536C131.351 30.3653 131.015 30.1147 130.737 29.784C130.46 29.4533 130.321 29.0107 130.321 28.456C130.321 28.0507 130.444 27.6773 130.689 27.336C130.935 26.984 131.276 26.7067 131.713 26.504C132.151 26.3013 132.647 26.2 133.201 26.2C134.108 26.2 134.839 26.4293 135.393 26.888C135.959 27.336 136.263 27.96 136.305 28.76H135.585C135.553 28.184 135.329 27.7147 134.913 27.352C134.497 26.9893 133.921 26.808 133.185 26.808C132.567 26.808 132.055 26.968 131.649 27.288C131.244 27.608 131.041 27.9973 131.041 28.456C131.041 28.8613 131.153 29.192 131.377 29.448C131.612 29.6933 131.895 29.8853 132.225 30.024C132.567 30.152 133.015 30.2907 133.569 30.44C134.177 30.6 134.663 30.76 135.025 30.92C135.399 31.0693 135.713 31.2933 135.969 31.592C136.225 31.88 136.353 32.2693 136.353 32.76C136.353 33.208 136.231 33.6133 135.985 33.976C135.74 34.3387 135.399 34.6213 134.961 34.824C134.524 35.0267 134.033 35.128 133.489 35.128Z" fill="black"/>
<path d="M120.548 28.6C120.793 27.896 121.236 27.32 121.876 26.872C122.526 26.424 123.31 26.2 124.228 26.2C125.038 26.2 125.758 26.3813 126.388 26.744C127.028 27.1067 127.524 27.624 127.876 28.296C128.238 28.968 128.42 29.752 128.42 30.648C128.42 31.544 128.238 32.3333 127.876 33.016C127.524 33.688 127.028 34.2107 126.388 34.584C125.758 34.9467 125.038 35.128 124.228 35.128C123.321 35.128 122.542 34.904 121.892 34.456C121.252 33.9973 120.804 33.4213 120.548 32.728V39.096H119.828V26.312H120.548V28.6ZM127.684 30.648C127.684 29.8587 127.534 29.176 127.236 28.6C126.937 28.024 126.516 27.5867 125.972 27.288C125.438 26.9787 124.82 26.824 124.116 26.824C123.444 26.824 122.836 26.984 122.292 27.304C121.748 27.6133 121.321 28.0613 121.012 28.648C120.702 29.224 120.548 29.8907 120.548 30.648C120.548 31.416 120.702 32.0933 121.012 32.68C121.321 33.256 121.748 33.704 122.292 34.024C122.836 34.3333 123.444 34.488 124.116 34.488C124.82 34.488 125.438 34.3333 125.972 34.024C126.516 33.7147 126.937 33.272 127.236 32.696C127.534 32.12 127.684 31.4373 127.684 30.648Z" fill="black"/>
<path d="M115.353 26.936V32.68C115.353 33.32 115.47 33.7627 115.705 34.008C115.939 34.2427 116.355 34.36 116.953 34.36H117.929V35H116.841C116.083 35 115.523 34.824 115.161 34.472C114.809 34.1093 114.633 33.512 114.633 32.68V26.936H113.321V26.312H114.633V24.104H115.353V26.312H117.929V26.936H115.353Z" fill="black"/>
<path d="M109.806 26.936V32.68C109.806 33.32 109.923 33.7627 110.158 34.008C110.393 34.2427 110.809 34.36 111.406 34.36H112.382V35H111.294C110.537 35 109.977 34.824 109.614 34.472C109.262 34.1093 109.086 33.512 109.086 32.68V26.936H107.774V26.312H109.086V24.104H109.806V26.312H112.382V26.936H109.806Z" fill="black"/>
<path d="M102.701 26.136C103.725 26.136 104.562 26.456 105.213 27.096C105.864 27.7253 106.189 28.664 106.189 29.912V35H105.485V29.96C105.485 28.9253 105.224 28.136 104.701 27.592C104.178 27.0373 103.469 26.76 102.573 26.76C101.634 26.76 100.882 27.0587 100.317 27.656C99.7625 28.2533 99.4851 29.1387 99.4851 30.312V35H98.7651V23.16H99.4851V28.152C99.7305 27.5013 100.141 27.0053 100.717 26.664C101.293 26.312 101.954 26.136 102.701 26.136Z" fill="black"/>
<path fill-rule="evenodd" clip-rule="evenodd" d="M31.3356 20.2526C31.7484 19.8857 32.3805 19.9229 32.7474 20.3356L48.7474 38.3356C49.1143 38.7484 49.0772 39.3805 48.6644 39.7474C48.2516 40.1143 47.6195 40.0772 47.2526 39.6644L31.2526 21.6644C30.8857 21.2516 30.9229 20.6195 31.3356 20.2526Z" fill="black"/>
<path fill-rule="evenodd" clip-rule="evenodd" d="M48.6644 20.2526C49.0772 20.6195 49.1143 21.2516 48.7474 21.6644L32.7474 39.6644C32.3805 40.0772 31.7484 40.1143 31.3356 39.7474C30.9229 39.3805 30.8857 38.7484 31.2526 38.3356L47.2526 20.3356C47.6195 19.9229 48.2516 19.8857 48.6644 20.2526Z" fill="black"/>
<path fill-rule="evenodd" clip-rule="evenodd" d="M65.3916 20.2064C65.8299 19.8704 66.4576 19.9533 66.7936 20.3916L77.5 34.3564L88.2064 20.3916C88.5424 19.9533 89.1701 19.8704 89.6084 20.2064C90.0467 20.5424 90.1296 21.1701 89.7936 21.6084L78.2936 36.6084C78.1044 36.8553 77.811 37 77.5 37C77.189 37 76.8956 36.8553 76.7064 36.6084L65.2064 21.6084C64.8704 21.1701 64.9533 20.5424 65.3916 20.2064Z" fill="black"/>
<path d="M325.406 22.3889C327.391 22.3889 329 20.9587 329 19.1944C329 17.4302 327.391 16 325.406 16C323.421 16 321.812 17.4302 321.812 19.1944C321.812 20.9587 323.421 22.3889 325.406 22.3889Z" fill="white"/>
<path fill-rule="evenodd" clip-rule="evenodd" d="M320.812 19.1944C320.812 16.7704 322.983 15 325.406 15C327.829 15 330 16.7704 330 19.1944C330 21.6184 327.829 23.3889 325.406 23.3889C322.983 23.3889 320.812 21.6184 320.812 19.1944ZM325.406 17C323.86 17 322.812 18.09 322.812 19.1944C322.812 20.2989 323.86 21.3889 325.406 21.3889C326.953 21.3889 328 20.2989 328 19.1944C328 18.09 326.953 17 325.406 17Z" fill="black"/>
<path d="M309.594 30.6944C311.579 30.6944 313.188 29.2642 313.188 27.5C313.188 25.7358 311.579 24.3055 309.594 24.3055C307.609 24.3055 306 25.7358 306 27.5C306 29.2642 307.609 30.6944 309.594 30.6944Z" fill="white"/>
<path fill-rule="evenodd" clip-rule="evenodd" d="M305 27.5C305 25.076 307.171 23.3055 309.594 23.3055C312.017 23.3055 314.188 25.076 314.188 27.5C314.188 29.924 312.017 31.6944 309.594 31.6944C307.171 31.6944 305 29.924 305 27.5ZM309.594 25.3055C308.047 25.3055 307 26.3955 307 27.5C307 28.6045 308.047 29.6944 309.594 29.6944C311.14 29.6944 312.188 28.6045 312.188 27.5C312.188 26.3955 311.14 25.3055 309.594 25.3055Z" fill="black"/>
<path fill-rule="evenodd" clip-rule="evenodd" d="M322.693 20.3651C322.955 20.8514 322.773 21.4578 322.287 21.7197L313.187 26.6206C312.7 26.8824 312.094 26.7005 311.832 26.2143C311.57 25.728 311.752 25.1216 312.238 24.8597L321.339 19.9588C321.825 19.697 322.431 19.8789 322.693 20.3651Z" fill="black"/>
<path fill-rule="evenodd" clip-rule="evenodd" d="M311.827 28.673C312.084 28.1841 312.688 27.9959 313.177 28.2527L322.765 33.2891C323.254 33.5459 323.443 34.1505 323.186 34.6394C322.929 35.1284 322.324 35.3165 321.835 35.0597L312.247 30.0234C311.758 29.7665 311.57 29.162 311.827 28.673Z" fill="black"/>
<path d="M325.406 32.6111C327.391 32.6111 329 34.0413 329 35.8055C329 37.5698 327.391 39 325.406 39C323.421 39 321.812 37.5698 321.812 35.8055C321.812 34.0413 323.421 32.6111 325.406 32.6111Z" fill="white"/>
<path fill-rule="evenodd" clip-rule="evenodd" d="M325.406 33.6111C323.86 33.6111 322.812 34.7011 322.812 35.8055C322.812 36.91 323.86 38 325.406 38C326.953 38 328 36.91 328 35.8055C328 34.7011 326.953 33.6111 325.406 33.6111ZM320.812 35.8055C320.812 33.3815 322.983 31.6111 325.406 31.6111C327.829 31.6111 330 33.3815 330 35.8055C330 38.2295 327.829 40 325.406 40C322.983 40 320.812 38.2295 320.812 35.8055Z" fill="black"/>
</svg>
