<svg width="36" height="31" viewBox="0 0 36 31" fill="none" xmlns="http://www.w3.org/2000/svg">
<path d="M18 9.6875C19.2426 9.6875 20.25 8.82005 20.25 7.75C20.25 6.67995 19.2426 5.8125 18 5.8125C16.7574 5.8125 15.75 6.67995 15.75 7.75C15.75 8.82005 16.7574 9.6875 18 9.6875Z" fill="black"/>
<path d="M18 17.4375C19.2426 17.4375 20.25 16.5701 20.25 15.5C20.25 14.4299 19.2426 13.5625 18 13.5625C16.7574 13.5625 15.75 14.4299 15.75 15.5C15.75 16.5701 16.7574 17.4375 18 17.4375Z" fill="black"/>
<path d="M18 24.5417C19.2426 24.5417 20.25 23.6742 20.25 22.6042C20.25 21.5341 19.2426 20.6667 18 20.6667C16.7574 20.6667 15.75 21.5341 15.75 22.6042C15.75 23.6742 16.7574 24.5417 18 24.5417Z" fill="black"/>
<path d="M18 9.6875C19.2426 9.6875 20.25 8.82005 20.25 7.75C20.25 6.67995 19.2426 5.8125 18 5.8125C16.7574 5.8125 15.75 6.67995 15.75 7.75C15.75 8.82005 16.7574 9.6875 18 9.6875Z" fill="black"/>
<path d="M18 17.4375C19.2426 17.4375 20.25 16.5701 20.25 15.5C20.25 14.4299 19.2426 13.5625 18 13.5625C16.7574 13.5625 15.75 14.4299 15.75 15.5C15.75 16.5701 16.7574 17.4375 18 17.4375Z" fill="black"/>
<path d="M18 24.5417C19.2426 24.5417 20.25 23.6742 20.25 22.6042C20.25 21.5341 19.2426 20.6667 18 20.6667C16.7574 20.6667 15.75 21.5341 15.75 22.6042C15.75 23.6742 16.7574 24.5417 18 24.5417Z" fill="black"/>
<path d="M18 9.6875C19.2426 9.6875 20.25 8.82005 20.25 7.75C20.25 6.67995 19.2426 5.8125 18 5.8125C16.7574 5.8125 15.75 6.67995 15.75 7.75C15.75 8.82005 16.7574 9.6875 18 9.6875Z" fill="black"/>
<path d="M18 17.4375C19.2426 17.4375 20.25 16.5701 20.25 15.5C20.25 14.4299 19.2426 13.5625 18 13.5625C16.7574 13.5625 15.75 14.4299 15.75 15.5C15.75 16.5701 16.7574 17.4375 18 17.4375Z" fill="black"/>
<path d="M18 24.5417C19.2426 24.5417 20.25 23.6742 20.25 22.6042C20.25 21.5341 19.2426 20.6667 18 20.6667C16.7574 20.6667 15.75 21.5341 15.75 22.6042C15.75 23.6742 16.7574 24.5417 18 24.5417Z" fill="black"/>
<path d="M18 9.6875C19.2426 9.6875 20.25 8.82005 20.25 7.75C20.25 6.67995 19.2426 5.8125 18 5.8125C16.7574 5.8125 15.75 6.67995 15.75 7.75C15.75 8.82005 16.7574 9.6875 18 9.6875Z" fill="black"/>
<path d="M18 17.4375C19.2426 17.4375 20.25 16.5701 20.25 15.5C20.25 14.4299 19.2426 13.5625 18 13.5625C16.7574 13.5625 15.75 14.4299 15.75 15.5C15.75 16.5701 16.7574 17.4375 18 17.4375Z" fill="black"/>
<path d="M18 24.5417C19.2426 24.5417 20.25 23.6742 20.25 22.6042C20.25 21.5341 19.2426 20.6667 18 20.6667C16.7574 20.6667 15.75 21.5341 15.75 22.6042C15.75 23.6742 16.7574 24.5417 18 24.5417Z" fill="black"/>
</svg>
