<svg width="11" height="10" viewBox="0 0 11 10" fill="none" xmlns="http://www.w3.org/2000/svg">
<g clip-path="url(#clip0_73_371)">
<path d="M2.84234 5.01909L4.84065 6.51074L7.50505 3.52745L2.84234 5.01909ZM5.1737 9.1957C4.56138 9.1957 3.95506 9.08767 3.38936 8.87778C2.82365 8.66788 2.30964 8.36024 1.87666 7.9724C1.44369 7.58457 1.10024 7.12414 0.865914 6.61741C0.631591 6.11068 0.510986 5.56757 0.510986 5.01909C0.510986 4.47061 0.631591 3.9275 0.865914 3.42077C1.10024 2.91404 1.44369 2.45362 1.87666 2.06578C2.30964 1.67795 2.82365 1.3703 3.38936 1.16041C3.95506 0.950515 4.56138 0.842484 5.1737 0.842484C6.41033 0.842484 7.59631 1.28252 8.47073 2.06578C9.34516 2.84905 9.83641 3.91139 9.83641 5.01909C9.83641 6.1268 9.34516 7.18914 8.47073 7.9724C7.59631 8.75567 6.41033 9.1957 5.1737 9.1957Z" stroke="black"/>
</g>
<defs>
<clipPath id="clip0_73_371">
<rect width="9.99153" height="8.94988" fill="white" transform="translate(0.177979 0.544159)"/>
</clipPath>
</defs>
</svg>
