<svg width="52" height="43" viewBox="0 0 52 43" fill="none" xmlns="http://www.w3.org/2000/svg">
<path d="M23.5554 25.9531L15.0157 19.9749L14.6706 19.7333L14.374 20.0324L12.1919 22.2324L11.774 22.6537L12.2601 22.9941L23.8251 31.0923L24.6119 31.6432V30.8798L39.1962 15.5615L39.6048 15.1323L39.113 14.8018L36.4536 13.0143L36.1035 12.779L35.8126 13.0844L23.5554 25.9531ZM0.5 21.4845C0.5 15.9499 3.11612 10.6203 7.81126 6.67548C12.509 2.72852 18.8965 0.5 25.5712 0.5C32.2459 0.5 38.6333 2.72852 43.3311 6.67548C48.0262 10.6203 50.6423 15.9499 50.6423 21.4845C50.6423 27.019 48.0262 32.3487 43.3311 36.2935C38.6333 40.2404 32.2459 42.469 25.5712 42.469C18.8965 42.469 12.509 40.2404 7.81126 36.2935C3.11612 32.3487 0.5 27.019 0.5 21.4845Z" fill="white" stroke="black"/>
</svg>
